<?xml version="1.0" encoding="UTF-8"?>
<svg width="80" height="80" viewBox="0 0 80 80" fill="none" xmlns="http://www.w3.org/2000/svg">
  <!-- Government of India Emblem - Simplified representation -->
  <circle cx="40" cy="40" r="38" fill="#003366" stroke="#FFD700" stroke-width="2"/>
  
  <!-- Ashoka Chakra in center -->
  <circle cx="40" cy="40" r="20" fill="none" stroke="#FFD700" stroke-width="2"/>
  <circle cx="40" cy="40" r="2" fill="#FFD700"/>
  
  <!-- 24 spokes of Ashoka Chakra -->
  <g stroke="#FFD700" stroke-width="1" stroke-linecap="round">
    <line x1="40" y1="22" x2="40" y2="58" transform="rotate(0 40 40)"/>
    <line x1="40" y1="22" x2="40" y2="58" transform="rotate(15 40 40)"/>
    <line x1="40" y1="22" x2="40" y2="58" transform="rotate(30 40 40)"/>
    <line x1="40" y1="22" x2="40" y2="58" transform="rotate(45 40 40)"/>
    <line x1="40" y1="22" x2="40" y2="58" transform="rotate(60 40 40)"/>
    <line x1="40" y1="22" x2="40" y2="58" transform="rotate(75 40 40)"/>
    <line x1="40" y1="22" x2="40" y2="58" transform="rotate(90 40 40)"/>
    <line x1="40" y1="22" x2="40" y2="58" transform="rotate(105 40 40)"/>
    <line x1="40" y1="22" x2="40" y2="58" transform="rotate(120 40 40)"/>
    <line x1="40" y1="22" x2="40" y2="58" transform="rotate(135 40 40)"/>
    <line x1="40" y1="22" x2="40" y2="58" transform="rotate(150 40 40)"/>
    <line x1="40" y1="22" x2="40" y2="58" transform="rotate(165 40 40)"/>
  </g>
  
  <!-- Lions (simplified representation) -->
  <circle cx="25" cy="15" r="3" fill="#FFD700"/>
  <circle cx="40" cy="15" r="3" fill="#FFD700"/>
  <circle cx="55" cy="15" r="3" fill="#FFD700"/>
  
  <!-- Base platform -->
  <rect x="20" y="65" width="40" height="4" rx="2" fill="#FFD700"/>
  
  <!-- Text "सत्यमेव जयते" representation -->
  <rect x="25" y="70" width="30" height="2" rx="1" fill="#003366"/>
</svg>